<svg width="100" height="100" viewBox="35 35 100 95" xmlns="http://www.w3.org/2000/svg">
<path d="M99.8501 60.4534C99.8501 66.0428 95.3191 70.5738 89.7297 70.5738C84.1404 70.5738 79.6093 66.0428 79.6093 60.4534C79.6093 54.8641 84.1404 50.333 89.7297 50.333C95.3191 50.333 99.8501 54.8641 99.8501 60.4534Z" fill="black"/>
<path d="M84.2745 104.999C65.8651 104.999 50.9414 90.0758 50.9414 71.6664V55.6665C69.3508 55.6665 84.2753 70.5902 84.2753 88.9996L84.2745 104.999Z" fill="black"/>
<path d="M120.941 66.333C102.532 66.333 87.6083 81.2567 87.6083 99.6661V115.666C106.018 115.666 120.941 100.742 120.941 82.3329V66.333Z" fill="black"/>
</svg>
